<svg width="22" height="22" viewBox="0 0 22 22" fill="none" xmlns="http://www.w3.org/2000/svg">
<path d="M11.1665 0.650391C16.8827 0.650391 21.5161 5.28385 21.5161 11C21.5161 16.7161 16.8827 21.3496 11.1665 21.3496C5.45036 21.3496 0.816895 16.7161 0.816895 11C0.816895 5.28385 5.45036 0.650391 11.1665 0.650391Z" fill="#F5F5F5"/>
<path d="M11.1665 0.650391C16.8827 0.650391 21.5161 5.28385 21.5161 11C21.5161 16.7161 16.8827 21.3496 11.1665 21.3496C5.45036 21.3496 0.816895 16.7161 0.816895 11C0.816895 5.28385 5.45036 0.650391 11.1665 0.650391Z" stroke="white" stroke-width="0.7"/>
<path d="M11.1665 1.20801C16.5743 1.20801 20.9585 5.59221 20.9585 11C20.9585 16.4078 16.5743 20.792 11.1665 20.792C5.75872 20.792 1.37451 16.4078 1.37451 11C1.37451 5.59221 5.75872 1.20801 11.1665 1.20801Z" stroke="black" stroke-opacity="0.08" stroke-width="0.416667"/>
<path d="M5.29714 14.5294V10.4337H6.22636V14.5294H5.29714ZM3.71393 12.9461V12.0169H7.80957V12.9461H3.71393ZM11.209 9.35653C11.4991 9.35851 11.7812 9.4098 12.0554 9.51042C12.3316 9.60906 12.5802 9.77083 12.8011 9.99574C13.0221 10.2187 13.1977 10.5176 13.3279 10.8924C13.4581 11.2672 13.5232 11.7309 13.5232 12.2833C13.5252 12.8041 13.4699 13.2697 13.3575 13.68C13.247 14.0884 13.0882 14.4337 12.881 14.7158C12.6739 14.9979 12.4243 15.2129 12.1323 15.3609C11.8404 15.5089 11.5119 15.5829 11.1469 15.5829C10.7642 15.5829 10.4248 15.5079 10.1289 15.358C9.83495 15.208 9.59722 15.0028 9.41572 14.7424C9.23422 14.482 9.12275 14.1841 9.08132 13.8487H10.1615C10.2167 14.0894 10.3292 14.2808 10.4988 14.4228C10.6705 14.5629 10.8865 14.6329 11.1469 14.6329C11.5671 14.6329 11.8907 14.4504 12.1175 14.0855C12.3444 13.7205 12.4579 13.2135 12.4579 12.5644H12.4164C12.3198 12.738 12.1945 12.8879 12.0406 13.0142C11.8867 13.1385 11.7121 13.2342 11.5168 13.3013C11.3235 13.3683 11.1183 13.4019 10.9013 13.4019C10.5462 13.4019 10.2266 13.317 9.94247 13.1474C9.66035 12.9777 9.43644 12.7449 9.27072 12.449C9.10697 12.1531 9.02411 11.8147 9.02214 11.4339C9.02214 11.0394 9.11289 10.6853 9.29439 10.3716C9.47787 10.0559 9.73335 9.80733 10.0608 9.62583C10.3883 9.44235 10.7711 9.35259 11.209 9.35653ZM11.212 10.2443C10.9989 10.2443 10.8066 10.2966 10.6349 10.4012C10.4653 10.5037 10.3311 10.6438 10.2325 10.8214C10.1358 10.997 10.0875 11.1933 10.0875 11.4103C10.0894 11.6253 10.1378 11.8206 10.2325 11.9962C10.3292 12.1718 10.4603 12.3109 10.6261 12.4135C10.7938 12.5161 10.9851 12.5674 11.2002 12.5674C11.36 12.5674 11.5089 12.5368 11.647 12.4756C11.7851 12.4145 11.9055 12.3296 12.008 12.2211C12.1126 12.1106 12.1935 11.9854 12.2507 11.8453C12.3099 11.7052 12.3385 11.5573 12.3365 11.4014C12.3365 11.1942 12.2872 11.0029 12.1886 10.8273C12.0919 10.6517 11.9587 10.5107 11.7891 10.4041C11.6214 10.2976 11.429 10.2443 11.212 10.2443ZM16.6127 9.35653C16.9027 9.35851 17.1848 9.4098 17.459 9.51042C17.7352 9.60906 17.9838 9.77083 18.2048 9.99574C18.4257 10.2187 18.6013 10.5176 18.7315 10.8924C18.8617 11.2672 18.9268 11.7309 18.9268 12.2833C18.9288 12.8041 18.8736 13.2697 18.7611 13.68C18.6506 14.0884 18.4918 14.4337 18.2847 14.7158C18.0775 14.9979 17.828 15.2129 17.536 15.3609C17.244 15.5089 16.9155 15.5829 16.5505 15.5829C16.1678 15.5829 15.8285 15.5079 15.5326 15.358C15.2386 15.208 15.0009 15.0028 14.8194 14.7424C14.6379 14.482 14.5264 14.1841 14.485 13.8487H15.5651C15.6203 14.0894 15.7328 14.2808 15.9025 14.4228C16.0741 14.5629 16.2901 14.6329 16.5505 14.6329C16.9708 14.6329 17.2943 14.4504 17.5212 14.0855C17.7481 13.7205 17.8615 13.2135 17.8615 12.5644H17.8201C17.7234 12.738 17.5981 12.8879 17.4442 13.0142C17.2904 13.1385 17.1158 13.2342 16.9205 13.3013C16.7271 13.3683 16.5219 13.4019 16.3049 13.4019C15.9498 13.4019 15.6302 13.317 15.3461 13.1474C15.064 12.9777 14.8401 12.7449 14.6744 12.449C14.5106 12.1531 14.4278 11.8147 14.4258 11.4339C14.4258 11.0394 14.5165 10.6853 14.698 10.3716C14.8815 10.0559 15.137 9.80733 15.4645 9.62583C15.792 9.44235 16.1747 9.35259 16.6127 9.35653ZM16.6156 10.2443C16.4026 10.2443 16.2102 10.2966 16.0386 10.4012C15.8689 10.5037 15.7348 10.6438 15.6361 10.8214C15.5395 10.997 15.4911 11.1933 15.4911 11.4103C15.4931 11.6253 15.5414 11.8206 15.6361 11.9962C15.7328 12.1718 15.864 12.3109 16.0297 12.4135C16.1974 12.5161 16.3888 12.5674 16.6038 12.5674C16.7636 12.5674 16.9126 12.5368 17.0507 12.4756C17.1888 12.4145 17.3091 12.3296 17.4117 12.2211C17.5163 12.1106 17.5971 11.9854 17.6544 11.8453C17.7135 11.7052 17.7421 11.5573 17.7402 11.4014C17.7402 11.1942 17.6909 11.0029 17.5922 10.8273C17.4955 10.6517 17.3624 10.5107 17.1927 10.4041C17.025 10.2976 16.8327 10.2443 16.6156 10.2443Z" fill="#535862"/>
</svg>
