<svg width="13" height="12" viewBox="0 0 13 12" fill="none" xmlns="http://www.w3.org/2000/svg">
<path d="M10.5 10V6.5M6.5 10V5M2.5 10L2.5 8M7.20334 2.51375L9.78756 3.48283M5.89939 2.70046L3.10011 4.79991M11.0303 3.21967C11.3232 3.51256 11.3232 3.98744 11.0303 4.28033C10.7374 4.57322 10.2626 4.57322 9.96967 4.28033C9.67678 3.98744 9.67678 3.51256 9.96967 3.21967C10.2626 2.92678 10.7374 2.92678 11.0303 3.21967ZM3.03033 4.71967C3.32322 5.01256 3.32322 5.48744 3.03033 5.78033C2.73744 6.07322 2.26256 6.07322 1.96967 5.78033C1.67678 5.48744 1.67678 5.01256 1.96967 4.71967C2.26256 4.42678 2.73744 4.42678 3.03033 4.71967ZM7.03033 1.71967C7.32322 2.01256 7.32322 2.48744 7.03033 2.78033C6.73744 3.07322 6.26256 3.07322 5.96967 2.78033C5.67678 2.48744 5.67678 2.01256 5.96967 1.71967C6.26256 1.42678 6.73744 1.42678 7.03033 1.71967Z" stroke="#717680" stroke-linecap="round" stroke-linejoin="round"/>
</svg>
