<svg width="17" height="16" viewBox="0 0 17 16" fill="none" xmlns="http://www.w3.org/2000/svg">
<path d="M1.8335 7.99996C1.8335 5.4858 1.8335 4.22872 2.61454 3.44767C3.39559 2.66663 4.65267 2.66663 7.16683 2.66663H9.8335C12.3477 2.66663 13.6047 2.66663 14.3858 3.44767C15.1668 4.22872 15.1668 5.4858 15.1668 7.99996V9.33329C15.1668 11.8475 15.1668 13.1045 14.3858 13.8856C13.6047 14.6666 12.3477 14.6666 9.8335 14.6666H7.16683C4.65267 14.6666 3.39559 14.6666 2.61454 13.8856C1.8335 13.1045 1.8335 11.8475 1.8335 9.33329V7.99996Z" stroke="#A4A7AE"/>
<path d="M5.1665 2.66663V1.66663" stroke="#A4A7AE" stroke-linecap="round"/>
<path d="M11.8335 2.66663V1.66663" stroke="#A4A7AE" stroke-linecap="round"/>
<path d="M2.1665 6H14.8332" stroke="#A4A7AE" stroke-linecap="round"/>
<path d="M12.4998 11.3333C12.4998 11.7015 12.2014 12 11.8332 12C11.465 12 11.1665 11.7015 11.1665 11.3333C11.1665 10.9651 11.465 10.6667 11.8332 10.6667C12.2014 10.6667 12.4998 10.9651 12.4998 11.3333Z" fill="#A4A7AE"/>
<path d="M12.4998 8.66667C12.4998 9.03486 12.2014 9.33333 11.8332 9.33333C11.465 9.33333 11.1665 9.03486 11.1665 8.66667C11.1665 8.29848 11.465 8 11.8332 8C12.2014 8 12.4998 8.29848 12.4998 8.66667Z" fill="#A4A7AE"/>
<path d="M9.16683 11.3333C9.16683 11.7015 8.86835 12 8.50016 12C8.13197 12 7.8335 11.7015 7.8335 11.3333C7.8335 10.9651 8.13197 10.6667 8.50016 10.6667C8.86835 10.6667 9.16683 10.9651 9.16683 11.3333Z" fill="#A4A7AE"/>
<path d="M9.16683 8.66667C9.16683 9.03486 8.86835 9.33333 8.50016 9.33333C8.13197 9.33333 7.8335 9.03486 7.8335 8.66667C7.8335 8.29848 8.13197 8 8.50016 8C8.86835 8 9.16683 8.29848 9.16683 8.66667Z" fill="#A4A7AE"/>
<path d="M5.83333 11.3333C5.83333 11.7015 5.53486 12 5.16667 12C4.79848 12 4.5 11.7015 4.5 11.3333C4.5 10.9651 4.79848 10.6667 5.16667 10.6667C5.53486 10.6667 5.83333 10.9651 5.83333 11.3333Z" fill="#A4A7AE"/>
<path d="M5.83333 8.66667C5.83333 9.03486 5.53486 9.33333 5.16667 9.33333C4.79848 9.33333 4.5 9.03486 4.5 8.66667C4.5 8.29848 4.79848 8 5.16667 8C5.53486 8 5.83333 8.29848 5.83333 8.66667Z" fill="#A4A7AE"/>
</svg>
