<svg width="63" height="58" viewBox="0 0 63 58" fill="none" xmlns="http://www.w3.org/2000/svg">
<path d="M14.9701 2.45793C24.7333 -3.49987 34.6051 2.76182 38.3207 6.63762C35.7902 6.63762 31.2577 6.2927 24.9155 10.4335C19.1019 14.2292 17.3239 14.9495 17.0356 15.0937C16.8051 15.2089 16.8758 15.3337 16.9399 15.3818C17.9777 15.7661 22.0804 13.5246 24.0024 12.3554C31.1614 7.45458 36.351 7.07004 36.5912 7.11809C36.783 7.15649 36.7031 7.19776 36.6391 7.21379C32.5555 7.64617 26.6247 12.4506 25.5405 13.4599C22.7537 16.0544 20.8952 17.128 19.0053 18.3613C21.2315 18.7937 26.367 19.4273 29.0961 18.5048C31.8251 17.5827 35.7423 18.8894 37.3598 19.6581H39.5219C41.8361 17.304 44.8071 17.3999 46.4887 17.7363C47.0451 17.8475 48.4903 18.2004 49.1791 18.2646C49.4194 18.2806 49.8235 18.419 49.516 18.8417C49.2085 19.2645 48.5543 20.6513 48.266 21.2919L46.7289 24.415C44.5668 28.499 41.828 28.1628 40.2905 26.7695C39.0605 25.6547 38.9772 22.3966 39.0893 20.9072H37.6C33.9965 31.6217 29.4144 29.0262 28.0864 28.163C26.1645 26.9137 25.2994 22.7814 25.2514 21.7724C25.2129 20.9653 24.3707 20.9232 24.0024 20.9072L22.3686 20.7636C18.6694 20.5233 17.3722 19.0337 15.4985 18.4091C13.9994 17.9094 12.5034 18.4575 11.9428 18.7939C8.91602 20.7158 10.5494 24.079 10.9819 24.3193C11.4143 24.5597 12.0873 25.8562 12.3276 26.6249C12.5678 27.3937 13.4325 29.6044 13.8168 30.0849C14.2012 30.5651 15.2574 30.9012 15.642 30.8534C15.9494 30.815 15.8984 31.0612 15.8344 31.1894C13.9606 34.4565 14.393 36.715 13.4321 40.2704C12.4713 43.8254 6.94767 49.1099 6.08148 49.3036C5.3896 49.4574 5.44007 49.1111 5.55218 48.9189C7.47407 46.5646 10.9823 44.3546 12.0873 38.5409C12.4688 36.5342 12.5032 34.6175 12.7114 33.9286C6.9076 37.1955 2.92593 34.2972 1.66058 32.4394C-2.02945 25.4437 2.97403 21.1954 5.93695 19.9462C5.93695 19.9462 6.60925 23.8387 8.91546 25.5204C6.86545 20.3153 5.20695 8.41579 14.9701 2.45793ZM36.5912 20.331C36.351 20.2349 33.7079 18.6972 30.4887 19.1777C31.5938 19.3538 33.9483 20.0423 34.5248 21.3876C34.5568 21.4357 34.5825 21.5415 34.4291 21.58C34.2369 21.628 33.035 21.7718 32.4584 22.3964C32.0899 22.6527 31.1805 23.0792 30.4887 22.7333C30.1043 22.4931 29.7972 21.6565 30.8735 21.1952C30.0087 21.1632 28.7595 21.4835 29.4799 22.9247C28.551 22.9888 26.7414 22.5019 26.5493 20.0419C26.4531 19.8498 26.2225 19.5813 26.0688 20.0419C26.0047 21.8036 26.424 25.7499 28.6147 27.4413C30.8054 29.1324 33.0508 27.4418 33.8998 26.3847C34.5885 25.5199 36.1291 23.1944 36.7826 20.8114C36.7987 20.6834 36.783 20.4081 36.5912 20.331ZM45.6723 18.4091C45.0957 18.3611 43.9423 18.0725 41.3959 19.4657C41.3639 19.4978 41.3285 19.5614 41.4438 19.5614C41.5886 19.5615 42.9812 19.6583 43.9418 20.955C43.6054 21.0992 42.8463 21.4545 42.5004 21.7236C42.0199 22.0759 41.0402 22.5117 40.9633 21.4355C40.9634 21.2913 41.0399 20.9453 41.3471 20.7148C40.9305 20.763 40.05 21.0517 39.8578 21.8202C39.7618 23.1656 39.9543 25.7599 41.4916 26.6728C41.86 26.913 43.0291 27.2493 44.1342 26.4325C44.5827 26.0642 45.6721 24.9427 46.4409 23.4052C47.4016 21.4836 47.6421 20.1386 48.1225 19.4179C48.1705 19.3218 48.2086 19.1298 47.978 19.1298C47.6895 19.1296 46.2968 18.4614 45.6723 18.4091Z" fill="black"/>
<path d="M14.4881 25.3281C11.6437 24.1366 12.1498 21.8207 12.7584 20.8117C13.1428 20.0814 14.0717 20.059 14.4881 20.139C15.449 20.5234 15.4651 21.7406 15.353 22.3012C15.2089 23.3102 16.0738 25.2801 16.2659 25.4723C16.4197 25.626 16.33 25.6645 16.2659 25.6645C15.4972 25.5876 14.7604 25.4082 14.4881 25.3281Z" fill="black" stroke="black" stroke-width="0.0960945"/>
<circle cx="15.7383" cy="28.4033" r="1.44142" fill="black"/>
<path d="M30.4407 15.8148C29.2635 16.011 26.725 16.4555 25.5879 16.5836C25.9242 16.6797 26.8852 17.2563 31.9782 16.9199C34.2335 16.771 35.2934 17.9289 35.87 18.1211C36.3313 18.2749 36.3184 18.057 36.2544 17.9289C35.3895 15.8148 32.4586 15.4785 30.4407 15.8148Z" fill="black" stroke="black" stroke-width="0.0960945"/>
<path d="M39.5224 17.6879C39.4071 18.1107 39.6986 18.0883 39.8587 18.0242C40.0189 17.9602 40.8196 17.3035 41.8767 17.0633C42.9337 16.8231 43.8274 16.6501 43.9427 16.5348C44.058 16.4195 43.9908 16.3906 43.9427 16.3906L42.2611 16.5348C40.9157 16.6309 39.6666 17.1594 39.5224 17.6879Z" fill="black" stroke="black" stroke-width="0.0960945"/>
<path d="M17.8997 31.2382C17.8613 30.7001 18.172 30.9179 18.3322 31.094C22.0799 37.8687 33.1787 40.175 33.6592 40.3672C34.0435 40.5209 33.9154 40.6234 33.8033 40.6555C26.7884 42.3371 29.3349 53.1477 29.2388 53.436C29.1619 53.6666 28.9505 53.6282 28.8544 53.5802C27.4322 52.4655 25.2189 50.2329 24.29 49.2559C17.9477 42.4812 17.9478 31.9108 17.8997 31.2382Z" fill="black"/>
<path d="M39.1366 28.4034C38.2585 28.2936 37.6151 28.6757 37.4069 28.8358C38.1276 28.5956 39.0505 29.5889 39.6651 29.7007C40.1936 29.7968 40.3377 29.6046 40.4338 29.3643C40.5299 29.1241 40.4338 28.3361 40.4338 28.0671C40.4338 27.798 40.1936 28.019 40.1936 28.019C40.1936 28.019 39.9053 28.4995 39.1366 28.4034Z" fill="black"/>
<path d="M17.8997 31.2382C17.8613 30.7001 18.172 30.9179 18.3322 31.094C22.0799 37.8687 33.1787 40.175 33.6592 40.3672C34.0435 40.5209 33.9154 40.6234 33.8033 40.6555C26.7884 42.3371 29.3349 53.1477 29.2388 53.436C29.1619 53.6666 28.9505 53.6282 28.8544 53.5802C27.4322 52.4655 25.2189 50.2329 24.29 49.2559C17.9477 42.4812 17.9478 31.9108 17.8997 31.2382Z" stroke="black" stroke-width="0.0960945"/>
<path d="M39.1366 28.4034C38.2585 28.2936 37.6151 28.6757 37.4069 28.8358C38.1276 28.5956 39.0505 29.5889 39.6651 29.7007C40.1936 29.7968 40.3377 29.6046 40.4338 29.3643C40.5299 29.1241 40.4338 28.3361 40.4338 28.0671C40.4338 27.798 40.1936 28.019 40.1936 28.019C40.1936 28.019 39.9053 28.4995 39.1366 28.4034Z" stroke="black" stroke-width="0.0960945"/>
<path d="M45.0949 36.6664L48.5543 42.4321L48.266 42.5762L46.3441 41.4711C45.0629 39.7254 42.4235 36.0802 42.116 35.4652C41.8085 34.8502 42.3402 34.6645 42.6445 34.6484L58.5001 34.8406C55.329 40.2219 50.7645 36.9547 48.5063 36.6664C46.6997 36.4358 45.4793 36.5703 45.0949 36.6664Z" fill="url(#paint0_linear_78_4878)"/>
<path d="M53.8359 31.3519C55.9836 29.2455 59.3012 29.1458 61.2461 31.1282C63.1907 33.111 63.0265 36.426 60.8789 38.5325L53.8359 31.3519ZM60.8643 37.6946C61.3442 37.1114 61.6729 36.4569 61.8555 35.7845L58.21 34.9886L60.8643 37.6946ZM58.8369 34.6341L61.96 35.3167C62.0456 34.8086 62.0474 34.2968 61.9678 33.803L58.8369 34.6341ZM56.7793 30.3851C56.0416 30.541 55.3172 30.8726 54.6729 31.3821L57.4443 34.2083L56.7793 30.3851ZM58.8633 34.1302L61.8652 33.3343C61.7068 32.76 61.4309 32.2222 61.0381 31.7571L58.8633 34.1302ZM57.2549 30.3099L57.8877 33.9515L58.6494 30.3665C58.1964 30.2775 57.7259 30.2584 57.2549 30.3099ZM58.3809 33.9456L60.7061 31.4075L60.6719 31.3753C60.2184 30.9614 59.6868 30.664 59.1152 30.4847L58.3809 33.9456Z" fill="black"/>
<path d="M53.8359 31.3519C55.9836 29.2455 59.3012 29.1458 61.2461 31.1282C63.1907 33.111 63.0265 36.426 60.8789 38.5325L53.8359 31.3519ZM60.8643 37.6946C61.3442 37.1114 61.6729 36.4569 61.8555 35.7845L58.21 34.9886L60.8643 37.6946ZM58.8369 34.6341L61.96 35.3167C62.0456 34.8086 62.0474 34.2968 61.9678 33.803L58.8369 34.6341ZM56.7793 30.3851C56.0416 30.541 55.3172 30.8726 54.6729 31.3821L57.4443 34.2083L56.7793 30.3851ZM58.8633 34.1302L61.8652 33.3343C61.7068 32.76 61.4309 32.2222 61.0381 31.7571L58.8633 34.1302ZM57.2549 30.3099L57.8877 33.9515L58.6494 30.3665C58.1964 30.2775 57.7259 30.2584 57.2549 30.3099ZM58.3809 33.9456L60.7061 31.4075L60.6719 31.3753C60.2184 30.9614 59.6868 30.664 59.1152 30.4847L58.3809 33.9456Z" fill="#F86B1F"/>
<path d="M36.4468 32.3427C35.4089 33.073 33.7401 33.3837 33.0354 33.4478C33.5351 33.4478 34.7651 34.649 35.5339 35.2255C36.7831 36.0423 37.4077 36.0327 38.5608 35.8021C39.714 35.5715 40.9312 33.4318 41.3956 32.3907C40.0022 31.67 39.6659 32.2946 39.4737 32.3907C39.32 32.4676 39.1534 32.3907 39.0894 32.3427C38.6409 32.0384 37.4846 31.6124 36.4468 32.3427Z" fill="black" stroke="black" stroke-width="0.0960945"/>
<path d="M46.3923 41.4715C48.8139 41.3946 49.7396 44.5465 49.8998 46.1321C51.9178 44.6907 51.9657 41.8559 51.7255 39.5976C51.4853 37.3394 51.3411 35.1292 51.5813 34.7929C51.7735 34.5239 51.9177 34.6808 51.9657 34.7929C52.0298 35.3374 52.3981 36.4746 52.8306 37.6277C53.314 38.9167 53.6954 41.3273 53.7435 41.6637C53.7819 41.9327 53.9517 41.9039 54.0318 41.8559C54.7044 40.5586 54.7044 37.7718 54.2239 35.5136C53.7435 33.2554 55.4732 32.0542 55.2329 32.6308C55.0407 33.092 55.313 34.3925 55.4732 34.9851C56.0017 36.4746 56.1939 38.8289 56.1939 39.0211C56.1939 39.1748 56.354 39.2133 56.4341 39.2133C56.8954 39.1364 57.0747 38.2203 57.1068 37.7718C57.1445 35.1719 58.1702 33.991 58.7085 33.7041C58.7234 33.6431 58.7339 33.6458 58.7404 33.6878C58.73 33.6929 58.7193 33.6983 58.7085 33.7041C58.6497 33.9452 58.5227 35.1823 58.308 38.925C57.9716 44.7867 52.5423 49.3993 51.245 51.0809C50.2072 52.4262 50.204 54.4282 50.3321 55.261C50.3321 55.261 45.2873 57.9997 44.6146 57.9997C43.9418 57.9997 43.7209 57.625 43.7978 56.7025C43.8939 55.5493 44.5665 54.0599 46.8247 50.2641C48.6313 47.2275 47.2892 43.1371 46.3923 41.4715Z" fill="black"/>
<defs>
<linearGradient id="paint0_linear_78_4878" x1="43.4132" y1="35.3691" x2="49.8996" y2="41.0387" gradientUnits="userSpaceOnUse">
<stop offset="0.0217747"/>
<stop offset="1" stop-color="#737373"/>
</linearGradient>
</defs>
</svg>
