<svg width="17" height="16" viewBox="0 0 17 16" fill="none" xmlns="http://www.w3.org/2000/svg">
<path d="M3.8335 5.67646C3.8335 3.27784 5.92283 1.33337 8.50016 1.33337C11.0775 1.33337 13.1668 3.27784 13.1668 5.67646C13.1668 8.05629 11.6774 10.8333 9.35354 11.8264C8.81181 12.0579 8.18851 12.0579 7.64679 11.8264C5.32294 10.8333 3.8335 8.05629 3.8335 5.67646Z" stroke="#A4A7AE"/>
<path d="M9.83317 5.99996C9.83317 6.73634 9.23622 7.33329 8.49984 7.33329C7.76346 7.33329 7.1665 6.73634 7.1665 5.99996C7.1665 5.26358 7.76346 4.66663 8.49984 4.66663C9.23622 4.66663 9.83317 5.26358 9.83317 5.99996Z" stroke="#A4A7AE"/>
<path d="M14.4739 10.3334C14.9174 10.735 15.1668 11.1878 15.1668 11.6667C15.1668 13.3236 12.1821 14.6667 8.50016 14.6667C4.81826 14.6667 1.8335 13.3236 1.8335 11.6667C1.8335 11.1878 2.08291 10.735 2.52647 10.3334" stroke="#A4A7AE" stroke-linecap="round"/>
</svg>
